P3
2 3
255
29 29 29 0 0 0
150 150 150 255 255 255
76 76 76 226 226 226
